# File created by Blade
# Date/Time:  Mon Sep 22 19:00:17 2014
# Frame Rate: 120.000 fps
#------------------------------------------------------
:FULLY-SPECIFIED
:DEGREES
3597
root -0.728085 32.787030 -4.592033 41.011414 4.532399 1.498473
Spine -43.298401 -5.793462 5.367585
Head -1.515503 -3.371749 -7.214866
LeftShoulder -21.708240 41.458170 21.921810
LeftArm 39.571825 -44.043149 -39.339562
LeftForeArm 21.209305 0.000000 -1.897069
LeftHand -24.220939 -0.000000 -1.724696
LeftHandThumb1 -26.253704 0.000000 33.147579
RightShoulder -22.826280 -39.399423 -32.547419
RightArm -319.317717 30.629085 -318.363303
RightForeArm -0.832905 -0.000000 -6.245805
RightHand 6.794514 0.000000 7.102059
RightHandThumb1 -24.326973 -0.000000 -32.862282
LeftUpLeg -37.694342 4.110706 -1.082061
LeftLeg 0.367070 -0.000000 -0.000000
LeftFoot -1.102423 -1.928008 -3.183495
LeftToeBase 2.345597 -0.000000 -0.000000
RightUpLeg -37.137769 -11.015915 5.459998
RightLeg -1.479990 -0.000000 0.000000
RightFoot -7.382213 -7.562406 20.008751
RightToeBase 16.790448 -0.000000 -0.000000
3598
root -0.728137 32.787249 -4.597214 41.002937 4.529698 1.497672
Spine -43.309283 -5.805737 5.394953
Head -1.465730 -3.304659 -7.220089
LeftShoulder -21.687243 41.481712 21.918659
LeftArm 39.598468 -43.988938 -39.319766
LeftForeArm 21.188172 -0.000000 -1.926285
LeftHand -24.295019 0.000000 -1.789450
LeftHandThumb1 -26.253704 0.000000 33.147579
RightShoulder -22.855734 -39.496814 -32.513524
RightArm -319.205738 30.686876 -318.369131
RightForeArm -0.833915 -0.000000 -6.263509
RightHand 6.894814 -0.000000 6.982097
RightHandThumb1 -24.326973 -0.000000 -32.862282
LeftUpLeg -37.701349 4.112039 -1.083543
LeftLeg 0.380551 -0.000000 -0.000000
LeftFoot -1.107105 -1.932941 -3.177758
LeftToeBase 2.397442 -0.000000 -0.000000
RightUpLeg -37.150956 -11.028882 5.473249
RightLeg -1.462836 -0.000000 0.000000
RightFoot -7.378870 -7.553365 19.997294
RightToeBase 16.794173 -0.000000 -0.000000
3599
root -0.728934 32.787245 -4.602340 40.995710 4.530087 1.497241
Spine -43.318520 -5.812763 5.410356
Head -1.420623 -3.260425 -7.200849
LeftShoulder -21.653592 41.483577 21.932166
LeftArm 39.644222 -43.953720 -39.326679
LeftForeArm 21.188953 -0.000000 -1.929560
LeftHand -24.213167 -0.000000 -1.836237
LeftHandThumb1 -26.253704 0.000000 33.147579
RightShoulder -22.809897 -39.429139 -32.545270
RightArm -319.337125 30.565418 -318.553602
RightForeArm -0.675376 -0.000000 -6.214959
RightHand 6.832572 -0.000000 6.949137
RightHandThumb1 -24.326973 -0.000000 -32.862282
LeftUpLeg -37.705104 4.091458 -1.067617
LeftLeg 0.387717 -0.000000 -0.000000
LeftFoot -1.107593 -1.895867 -3.175808
LeftToeBase 2.376507 -0.000000 -0.000000
RightUpLeg -37.154058 -11.030465 5.477518
RightLeg -1.461080 -0.000000 0.000000
RightFoot -7.381741 -7.558997 19.978867
RightToeBase 16.830771 -0.000000 -0.000000
3600
root -0.729623 32.787274 -4.607082 40.987461 4.522336 1.496493
Spine -43.328068 -5.825134 5.426112
Head -1.371782 -3.208193 -7.177615
LeftShoulder -21.619646 41.471196 21.959240
LeftArm 39.649975 -43.899809 -39.319434
LeftForeArm 21.143361 -0.000000 -1.920155
LeftHand -24.272279 -0.000000 -1.880434
LeftHandThumb1 -26.253704 0.000000 33.147579
RightShoulder -22.790311 -39.413240 -32.564432
RightArm -319.345093 30.548326 -318.603283
RightForeArm -0.662662 -0.000000 -6.195484
RightHand 6.855051 -0.000000 6.946290
RightHandThumb1 -24.326973 -0.000000 -32.862282
LeftUpLeg -37.705588 4.095125 -1.069741
LeftLeg 0.388248 -0.000000 -0.000000
LeftFoot -1.105208 -1.891024 -3.161168
LeftToeBase 2.342735 -0.000000 -0.000000
RightUpLeg -37.169797 -11.051314 5.495140
RightLeg -1.439873 -0.000000 0.000000
RightFoot -7.374990 -7.522760 19.975712
RightToeBase 16.809049 -0.000000 -0.000000
3601
root -0.731871 32.787500 -4.612879 40.981382 4.520255 1.494280
Spine -43.338855 -5.847467 5.445213
Head -1.326264 -3.146119 -7.137687
LeftShoulder -21.597617 41.463076 21.986730
LeftArm 39.698722 -43.882761 -39.367288
LeftForeArm 21.173845 0.000000 -1.921819
LeftHand -24.238677 -0.000000 -1.925170
LeftHandThumb1 -26.253704 0.000000 33.147579
RightShoulder -22.776054 -39.414815 -32.560251
RightArm -319.325710 30.536233 -318.651312
RightForeArm -0.678468 -0.000000 -6.191572
RightHand 6.864197 -0.000000 6.926583
RightHandThumb1 -24.326973 -0.000000 -32.862282
LeftUpLeg -37.716324 4.094274 -1.063878
LeftLeg 0.402090 -0.000000 -0.000000
LeftFoot -1.117162 -1.878800 -3.170735
LeftToeBase 2.406565 -0.000000 -0.000000
RightUpLeg -37.147286 -11.012391 5.469451
RightLeg -1.482921 -0.000000 0.000000
RightFoot -7.351873 -7.564848 19.996801
RightToeBase 16.791788 -0.000000 -0.000000
